<svg width="133" height="37" viewBox="0 0 133 37" fill="none" xmlns="http://www.w3.org/2000/svg">
<path fill-rule="evenodd" clip-rule="evenodd" d="M17.4842 34.5697V35.8812H0.310547V34.5697C2.00609 34.452 3.14345 34.0947 3.72262 33.4978C4.30179 32.901 4.59137 31.6862 4.59137 29.8535V7.02908C4.59137 5.07871 4.29759 3.84711 3.71003 3.3343C3.12246 2.82149 1.9893 2.4726 0.310547 2.28765V0.976196H16.905C21.3034 0.976196 24.6483 1.69077 26.9398 3.11993C29.2313 4.54908 30.3771 7.00386 30.3771 10.4843C30.3771 12.1824 29.928 13.7755 29.0299 15.2635C28.1317 16.7515 26.6502 17.9495 24.5854 18.8574C23.0241 19.4963 21.4629 19.8831 19.9016 20.0176C18.3404 20.1521 16.0237 20.2193 12.9516 20.2193V29.8535C12.9516 31.7534 13.2705 32.9976 13.9085 33.5861C14.5464 34.1746 15.7383 34.5025 17.4842 34.5697ZM12.9519 4.55748V18.4287C16.024 18.3782 18.0721 18.0251 19.0961 17.3694C20.7245 16.327 21.5387 14.0824 21.5387 10.6356C21.5387 8.28169 21.1442 6.38176 20.3552 4.93579C19.5661 3.48982 18.0553 2.76684 15.8225 2.76684C14.7985 2.76684 14.064 2.88874 13.6192 3.13253C13.1743 3.37633 12.9519 3.85131 12.9519 4.55748ZM43.8537 36.6126C45.6164 36.6126 47.1777 36.2847 48.5375 35.629C50.6359 34.6033 52.4826 32.7791 54.0774 30.1561L52.8938 29.4248C51.9202 30.5008 51.106 31.2658 50.4513 31.7198C49.3769 32.4764 48.2353 32.8547 47.0266 32.8547C44.4917 32.8547 42.7206 31.434 41.7133 28.5925C41.1593 27.0793 40.8236 25.2886 40.7061 23.2205H53.8507C53.8507 22.7498 53.792 22.0688 53.6745 21.1777C53.4394 19.2778 53.0198 17.7309 52.4154 16.5371C51.6096 14.9567 50.4597 13.7209 48.9656 12.8298C47.4715 11.9386 45.8766 11.4931 44.1811 11.4931C41.2097 11.4931 38.6706 12.5902 36.5637 14.7843C34.4569 16.9785 33.4035 20.0596 33.4035 24.0276C33.4035 28.4159 34.5115 31.6105 36.7274 33.6113C38.9434 35.6121 41.3188 36.6126 43.8537 36.6126ZM40.5803 21.3038H47.5052C47.4716 18.2605 47.2366 16.1336 46.8001 14.923C46.3636 13.7125 45.4907 13.1072 44.1812 13.1072C42.8382 13.1072 41.9191 13.8049 41.4239 15.2005C40.9286 16.596 40.6474 18.6304 40.5803 21.3038ZM75.789 36.6126C76.6452 36.6126 77.4594 36.4612 78.2316 36.1586C79.4571 35.6878 80.5734 34.8639 81.5807 33.687L80.8001 32.6025C80.4643 32.9388 80.2167 33.1448 80.0572 33.2204C79.8977 33.2961 79.7173 33.3339 79.5158 33.3339C79.2808 33.3339 79.0668 33.2036 78.8737 32.943C78.6806 32.6824 78.5841 32.3671 78.5841 31.9972V19.4879C78.5841 16.4279 77.6104 14.3262 75.6631 13.1828C73.6989 12.0563 71.2564 11.4931 68.3353 11.4931C65.6158 11.4931 63.3243 12.0731 61.4608 13.2333C59.5974 14.3934 58.6657 15.9655 58.6657 17.9495C58.6657 19.0592 59.0141 19.9083 59.7107 20.4967C60.4074 21.0852 61.251 21.3795 62.2415 21.3795C63.0976 21.3795 63.8489 21.1146 64.4952 20.585C65.1415 20.0554 65.4647 19.303 65.4647 18.3278C65.4647 17.9411 65.3933 17.5754 65.2506 17.2307C65.1079 16.886 64.9191 16.5708 64.684 16.2849L64.3819 15.9319C64.2476 15.7805 64.1468 15.6376 64.0797 15.5031C64.0125 15.3686 63.979 15.2005 63.979 14.9987C63.979 14.4775 64.2769 14.0445 64.8729 13.6999C65.4689 13.3552 66.2285 13.1828 67.1518 13.1828C68.797 13.1828 69.9427 13.5485 70.5891 14.2799C71.2354 15.0113 71.5585 16.142 71.5585 17.6721V21.4299C66.7909 22.8086 63.2907 24.1789 61.0579 25.5408C58.8252 26.9027 57.7088 28.7438 57.7088 31.0641C57.7088 32.964 58.3216 34.3637 59.5471 35.2633C60.7725 36.1628 62.0904 36.6126 63.5005 36.6126C64.5581 36.6126 65.6325 36.4276 66.7237 36.0577C68.52 35.4692 70.1316 34.4604 71.5585 33.0313C71.7432 34.0233 72.037 34.7715 72.4399 35.2759C73.145 36.167 74.2613 36.6126 75.789 36.6126ZM65.9804 32.0603C66.4925 32.6404 67.0674 32.9304 67.7054 32.9304C68.5447 32.9304 69.3254 32.6782 70.0472 32.1738C70.4501 31.8712 70.9286 31.4004 71.4826 30.7615V23.2206C70.106 23.5568 68.8973 24.0865 67.8565 24.8095C66.0938 26.0368 65.2124 27.6005 65.2124 29.5004C65.2124 30.627 65.4684 31.4802 65.9804 32.0603ZM96.5687 35.8812V34.6454C95.3936 34.494 94.6633 34.225 94.3779 33.8383C94.0925 33.4516 93.9498 32.6782 93.9498 31.518V25.6669L95.083 24.4059L99.9682 31.3415C100.522 32.1317 100.87 32.674 101.013 32.9682C101.156 33.2625 101.227 33.4936 101.227 33.6618C101.227 33.9812 101.055 34.2166 100.711 34.3679C100.367 34.5193 99.8255 34.6117 99.0868 34.6454V35.8812H111.123V34.6454C110.821 34.5949 110.578 34.5235 110.393 34.431C110.209 34.3385 110.016 34.1494 109.814 33.8635L99.8423 20.1184L103.846 16.058C104.887 15.0155 105.961 14.2757 107.069 13.8386C107.69 13.6032 108.53 13.4182 109.587 13.2837V12.0984H98.5328V13.2837C99.6408 13.3846 100.426 13.5191 100.887 13.6873C101.349 13.8554 101.58 14.2001 101.58 14.7213C101.58 14.9231 101.496 15.1963 101.328 15.541C101.16 15.8856 100.883 16.2513 100.497 16.638L93.9498 23.2206V0.976196H84.2802V2.23721C85.2371 2.45579 85.8918 2.73321 86.2443 3.06949C86.5969 3.40576 86.7732 4.12033 86.7732 5.21322V31.518C86.7732 32.6614 86.5843 33.4138 86.2066 33.7753C85.8289 34.1368 85.1867 34.4268 84.2802 34.6454V35.8812H96.5687ZM116.655 35.465C116.445 35.692 116.206 36.0745 115.937 36.6126H114.704V28.0629H116.139C116.643 30.5344 117.583 32.2789 118.959 33.2961C120.336 34.3133 121.746 34.8219 123.19 34.8219C124.516 34.8219 125.49 34.5235 126.111 33.9266C126.732 33.3297 127.042 32.5437 127.042 31.5685C127.042 30.6437 126.707 29.8535 126.035 29.1978C125.666 28.8447 125.07 28.4664 124.247 28.0629L120.42 26.1965C118.405 25.2045 116.961 24.1285 116.089 22.9683C115.199 21.8082 114.754 20.4379 114.754 18.8574C114.754 16.8566 115.451 15.129 116.844 13.6746C118.237 12.2203 120.185 11.4931 122.686 11.4931C123.777 11.4931 124.936 11.6738 126.161 12.0353C127.387 12.3968 128.15 12.5776 128.453 12.5776C128.872 12.5776 129.17 12.4893 129.346 12.3127C129.523 12.1362 129.67 11.8882 129.787 11.5687H130.92V19.034H129.611C129.124 17.2854 128.327 15.8814 127.219 14.8222C126.111 13.7629 124.818 13.2333 123.341 13.2333C122.199 13.2333 121.347 13.5527 120.785 14.1917C120.222 14.8306 119.941 15.5199 119.941 16.2597C119.941 16.865 120.193 17.4703 120.697 18.0756C121.184 18.6977 122.107 19.3366 123.467 19.9923L126.287 21.3542C128.033 22.1949 129.309 23.0104 130.115 23.8006C131.458 25.1457 132.129 26.8018 132.129 28.769C132.129 30.6858 131.437 32.4722 130.052 34.1283C128.667 35.7845 126.589 36.6126 123.819 36.6126C123.131 36.6126 122.438 36.5411 121.742 36.3982C121.045 36.2553 120.185 36.0073 119.161 35.6542L118.279 35.3515C117.96 35.2338 117.763 35.1666 117.688 35.1498C117.612 35.133 117.515 35.1246 117.398 35.1246C117.113 35.1246 116.865 35.238 116.655 35.465Z" fill="white"/>
</svg>
