<svg width="16" height="16" viewBox="0 0 18 18" fill="none" xmlns="http://www.w3.org/2000/svg">
<path fill-rule="evenodd" clip-rule="evenodd" d="M12.1872 11.4716H12.9772L17.2172 15.7316C17.6272 16.1416 17.6272 16.8116 17.2172 17.2216C16.8072 17.6316 16.1372 17.6316 15.7272 17.2216L11.4772 12.9716V12.1816L11.2072 11.9016C9.80719 13.1016 7.89719 13.7216 5.86719 13.3816C3.08719 12.9116 0.867188 10.5916 0.527188 7.79157C0.00718811 3.56157 3.56719 0.00156525 7.79719 0.521565C10.5972 0.861565 12.9172 3.08157 13.3872 5.86157C13.7272 7.89157 13.1072 9.80157 11.9072 11.2016L12.1872 11.4716ZM2.47719 6.97157C2.47719 9.46157 4.48719 11.4716 6.97719 11.4716C9.46719 11.4716 11.4772 9.46157 11.4772 6.97157C11.4772 4.48157 9.46719 2.47157 6.97719 2.47157C4.48719 2.47157 2.47719 4.48157 2.47719 6.97157Z" fill="white"/>
</svg>
