<svg width="48" height="21" viewBox="0 0 48 21" fill="none" xmlns="http://www.w3.org/2000/svg">
<path fill-rule="evenodd" clip-rule="evenodd" d="M14.394 19.5228V20.2623H4.02568V19.5228C5.16194 19.5228 5.91708 19.345 6.29109 18.9894C6.66511 18.6339 6.85212 17.9251 6.85212 16.8632V1.53191C5.4318 1.56984 4.34288 1.79265 3.58538 2.20035C2.19346 2.95886 1.40755 4.37632 1.22764 6.45273H0.389648L0.418055 0.579041H17.9307L17.9591 6.45273H17.1211C16.8465 4.35735 16.0606 2.93989 14.7633 2.20035C14.0342 1.79265 12.9453 1.56984 11.4966 1.53191V16.8632C11.4966 17.9346 11.6836 18.6457 12.0576 18.9965C12.4316 19.3473 13.2104 19.5228 14.394 19.5228ZM26.5236 19.5654V20.2623H19.5214V19.5654C20.0517 19.499 20.4422 19.3545 20.6932 19.1316C20.9441 18.9088 21.0695 18.4656 21.0695 17.8019V2.96834C21.0695 2.38998 20.9654 1.98465 20.7571 1.75236C20.5488 1.52006 20.1369 1.36599 19.5214 1.29014V0.579041H25.1459V8.77092C25.7424 8.05033 26.3697 7.49331 27.0278 7.09983C27.6859 6.70636 28.4268 6.50962 29.2506 6.50962C30.3679 6.50962 31.2911 6.83435 32.0202 7.48383C32.7493 8.1333 33.1139 9.24024 33.1139 10.8047V17.8019C33.1139 18.4561 33.2252 18.8851 33.4477 19.089C33.6702 19.2928 34.0418 19.4516 34.5626 19.5654V20.2623H27.7309V19.5654C28.2517 19.4611 28.6067 19.3189 28.7961 19.1388C28.9855 18.9586 29.0802 18.5509 29.0802 17.9157V10.8616C29.0802 10.1979 29.0139 9.70009 28.8813 9.36824C28.6541 8.77092 28.2043 8.47225 27.532 8.47225C27.0302 8.47225 26.5118 8.70455 25.9768 9.16913C25.4418 9.63372 25.1743 9.95134 25.1743 10.122V17.9157C25.1743 18.5509 25.269 18.9586 25.4583 19.1388C25.6477 19.3189 26.0028 19.4611 26.5236 19.5654ZM41.778 20.6747C42.7722 20.6747 43.6528 20.4898 44.4198 20.1201C45.6034 19.5417 46.6449 18.513 47.5445 17.0339L46.8769 16.6215C46.3277 17.2283 45.8685 17.6597 45.4992 17.9157C44.8932 18.3423 44.2493 18.5557 43.5676 18.5557C42.1378 18.5557 41.1388 17.7545 40.5707 16.1521C40.2582 15.2988 40.0688 14.2891 40.0026 13.1229H47.4166C47.4166 12.8574 47.3835 12.4734 47.3172 11.9709C47.1847 10.8995 46.9479 10.0272 46.6071 9.35402C46.1526 8.46277 45.5039 7.76589 44.6612 7.26338C43.8185 6.76087 42.919 6.50962 41.9626 6.50962C40.2866 6.50962 38.8545 7.12827 37.6661 8.36559C36.4778 9.6029 35.8836 11.3404 35.8836 13.578C35.8836 16.0526 36.5086 17.854 37.7584 18.9823C39.0083 20.1106 40.3482 20.6747 41.778 20.6747ZM39.9316 12.042H43.8375C43.8186 10.3259 43.686 9.12647 43.4398 8.44381C43.1936 7.76116 42.7012 7.41983 41.9627 7.41983C41.2052 7.41983 40.6867 7.8133 40.4074 8.60026C40.1281 9.38721 39.9695 10.5344 39.9316 12.042Z" fill="white"/>
</svg>
